<svg width="12" height="11" viewBox="0 0 12 11" fill="none" xmlns="http://www.w3.org/2000/svg">
<path d="M5.46642 9.83883L5.4657 9.83818C3.91087 8.42953 2.66062 7.29416 1.79324 6.23394C0.931343 5.18043 0.5 4.26245 0.5 3.297C0.5 1.72185 1.72712 0.5 3.3 0.5C4.19302 0.5 5.05827 0.917928 5.62073 1.57268L6 2.01418L6.37927 1.57268C6.94173 0.917928 7.80698 0.5 8.7 0.5C10.2729 0.5 11.5 1.72185 11.5 3.297C11.5 4.26245 11.0687 5.18043 10.2068 6.23394C9.33938 7.29416 8.08914 8.42953 6.5343 9.83817L6.53358 9.83883L6 10.3241L5.46642 9.83883Z" stroke="#333333"/>
</svg>
