<svg width="23" height="20" viewBox="0 0 23 20" fill="none" xmlns="http://www.w3.org/2000/svg">
<path d="M11.7647 4.70588H2.35294C1.7289 4.70588 1.13042 4.95378 0.68916 5.39504C0.247898 5.83631 0 6.43478 0 7.05882V11.7647C0 12.3887 0.247898 12.9872 0.68916 13.4285C1.13042 13.8697 1.7289 14.1176 2.35294 14.1176H3.52941V18.8235C3.52941 19.1355 3.65336 19.4348 3.87399 19.6554C4.09462 19.8761 4.39386 20 4.70588 20H7.05882C7.37084 20 7.67008 19.8761 7.89071 19.6554C8.11135 19.4348 8.23529 19.1355 8.23529 18.8235V14.1176H11.7647L17.6471 18.8235V0L11.7647 4.70588ZM15.2941 13.6471L12.9412 11.7647H2.35294V7.05882H12.9412L15.2941 5.17647V13.6471ZM22.9412 9.41177C22.9412 11.4235 21.8118 13.2471 20 14.1176V4.70588C21.8 5.58824 22.9412 7.41177 22.9412 9.41177Z" fill="#333"/>
</svg>
