<svg width="22" height="22" viewBox="0 0 22 22" fill="none" xmlns="http://www.w3.org/2000/svg">
<path d="M4.4 9.9C6.83375 9.9 8.8 11.8662 8.8 14.3C8.8 16.7337 6.83375 18.7 4.4 18.7C1.96625 18.7 0 16.7337 0 14.3C0 11.8662 1.96625 9.9 4.4 9.9ZM14.85 16.5C15.5793 16.5 16.2788 16.7897 16.7945 17.3055C17.3103 17.8212 17.6 18.5207 17.6 19.25C17.6 19.9793 17.3103 20.6788 16.7945 21.1945C16.2788 21.7103 15.5793 22 14.85 22C14.1207 22 13.4212 21.7103 12.9055 21.1945C12.3897 20.6788 12.1 19.9793 12.1 19.25C12.1 18.5207 12.3897 17.8212 12.9055 17.3055C13.4212 16.7897 14.1207 16.5 14.85 16.5ZM15.4 0C16.2667 0 17.125 0.170714 17.9257 0.502395C18.7265 0.834076 19.454 1.32023 20.0669 1.9331C20.6798 2.54596 21.1659 3.27354 21.4976 4.07429C21.8293 4.87504 22 5.73328 22 6.6C22 10.2438 19.0438 13.2 15.4 13.2C13.6496 13.2 11.9708 12.5046 10.7331 11.2669C9.49535 10.0292 8.8 8.35043 8.8 6.6C8.8 2.95625 11.7562 0 15.4 0Z" fill="#333"/>
</svg>
