<svg width="25" height="25" viewBox="0 0 25 25" fill="none" xmlns="http://www.w3.org/2000/svg">
<path d="M15.9211 9.21053L17.1053 10.3947L5.13158 22.3684H3.94737V21.1842L15.9211 9.21053ZM20.6579 1.31579C20.3947 1.31579 20 1.44737 19.7368 1.71053L17.3684 4.07895L22.2368 9.07895L24.6053 6.57895C25.1316 6.05263 25.1316 5.26316 24.6053 4.73684L21.5789 1.71053C21.3158 1.44737 20.9211 1.31579 20.6579 1.31579ZM15.9211 5.52632L1.31579 20V25H6.31579L20.7895 10.3947L15.9211 5.52632ZM6.57895 0V3.94737H10.5263V6.57895H6.57895V10.5263H3.94737V6.57895H0V3.94737H3.94737V0H6.57895Z" fill="white"/>
</svg>
