<?xml version="1.0" encoding="utf-8"?>
<!-- Generator: Adobe Illustrator 27.8.1, SVG Export Plug-In . SVG Version: 6.00 Build 0)  -->
<svg version="1.1" id="레이어_1" xmlns="http://www.w3.org/2000/svg" xmlns:xlink="http://www.w3.org/1999/xlink" x="0px"
	 y="0px" viewBox="0 0 212 55" style="enable-background:new 0 0 212 55;" xml:space="preserve">
<style type="text/css">
	.st0{fill:#B7D332;}
	.st1{fill:#8DA82B;}
	.st2{fill:#595959;}
</style>
<g>
	<g>
		<path class="st0" d="M9.8,0c0,0-2,6.9-0.5,10.2c2.1,4.5,8,6.2,8,6.2L9.8,0z"/>
		<path class="st1" d="M9.8,0c0,0,6.5,2.9,8,6.2c2.1,4.5-0.5,10.2-0.5,10.2L9.8,0z"/>
		<path class="st0" d="M0,12.7c0,0,4.4,5.7,7.9,6.4c4.8,1,9.7-2.9,9.7-2.9L0,12.7z"/>
		<path class="st1" d="M0,12.7c0,0,6.2-3.6,9.7-2.9c4.8,1,7.9,6.4,7.9,6.4L0,12.7z"/>
	</g>
	<g>
		<g>
			<path class="st0" d="M45.6,17.3c-3.4-3-7.5-4.7-11.7-4.9c-0.4,0-0.7,0.3-0.7,0.7l0,16.1c0,0.6,0.8,0.9,1.2,0.5l11.3-11.3
				C45.9,18,45.9,17.5,45.6,17.3z"/>
			<path class="st0" d="M32.5,29.1l0-16.1c0-0.4-0.3-0.7-0.7-0.7c-4.2,0.2-8.4,1.9-11.7,4.9c-0.3,0.3-0.3,0.7,0,1l11.3,11.4
				C31.7,30.1,32.5,29.8,32.5,29.1z"/>
			<path class="st0" d="M30.7,30.2L19.4,18.8c-0.3-0.3-0.8-0.3-1,0c-3,3.4-4.6,7.6-4.8,11.8c0,0.4,0.3,0.7,0.7,0.7l16,0
				C30.9,31.4,31.2,30.6,30.7,30.2z"/>
			<path class="st0" d="M33.2,34.4l0,16.1c0,0.4,0.3,0.7,0.7,0.7c4.2-0.2,8.4-1.9,11.7-4.9c0.3-0.3,0.3-0.7,0-1L34.4,33.9
				C34,33.4,33.2,33.7,33.2,34.4z"/>
			<path class="st0" d="M31.3,33.9L20,45.2c-0.3,0.3-0.3,0.8,0,1c3.4,3,7.5,4.7,11.7,4.9c0.4,0,0.7-0.3,0.7-0.7l0-16.1
				C32.5,33.7,31.7,33.4,31.3,33.9z"/>
			<path class="st0" d="M30.2,32.1l-16,0c-0.4,0-0.7,0.3-0.7,0.7c0.3,4.2,1.9,8.4,4.9,11.8c0.3,0.3,0.7,0.3,1,0l11.3-11.3
				C31.2,32.9,30.9,32.1,30.2,32.1z"/>
		</g>
	</g>
	<g>
		<g>
			<path class="st1" d="M56.9,42.2h11.8V46h-14c-1.2,0-2.2-1-2.2-2.2V19.5h4.4C56.9,19.5,56.9,42.2,56.9,42.2z"/>
			<path class="st1" d="M76.5,46h-4.4V19.5h4.4V46z"/>
			<path class="st0" d="M94.5,34.9l7.6-15.3h4.2V46h-4.3V28.3l-6.1,12.6h-3.1L87,28.4V46h-4.3V19.5h4.2L94.5,34.9z"/>
			<path class="st0" d="M128.5,19.5v3.9h-11.8v7h10.6v3.8h-10.6v7.9h11.8V46h-16.2V19.5H128.5z"/>
		</g>
		<g>
			<path class="st2" d="M135.3,19.4h2.1v20.1c0,2.7,0.3,4.5,3.6,4.5v2c-4.4,0-5.8-1.9-5.8-5.9L135.3,19.4L135.3,19.4z"/>
			<path class="st2" d="M146,19.4h2.6V22H146V19.4z M146.2,26.7h2.1v19.2h-2.1V26.7z"/>
			<path class="st2" d="M153.3,34.9c0-5.4,2.7-8.4,7.5-8.4c2.9,0,4.7,0.9,5.8,2.7v-2.5h2.1v18.4c0,5.3-2.9,8.3-7.8,8.3
				c-3.1,0-5.1-1-6.4-3.1l1.6-1.2c1,1.7,2.6,2.3,4.8,2.3c3.9,0,5.6-2.5,5.6-6.3v-1.6c-1.1,1.8-2.9,2.6-5.8,2.6c-5,0-7.5-3.2-7.5-8.5
				L153.3,34.9L153.3,34.9z M166.5,37.7v-3c0-3.8-1.6-6.2-5.6-6.2c-3.6,0-5.5,2.3-5.5,6.4v2.8c0,4,1.8,6.5,5.5,6.5
				C165.2,44.2,166.5,41.4,166.5,37.7z"/>
			<path class="st2" d="M174,19.4h2.1v9.9c1-1.8,2.8-2.8,5.6-2.8c4.3,0,7.1,2.6,7.1,8v11.3h-2.1V34.6c0-4.4-2.2-6.1-5.2-6.1
				c-3.6,0-5.4,2.4-5.4,5.9v11.5H174L174,19.4L174,19.4z"/>
			<path class="st2" d="M192.5,26.7h2.4v-4.2h2.1v4.2h4.7v2h-4.7v10.7c0,3.1,0.3,4.5,3.4,4.5h1.3v2h-1.3c-4.3,0-5.5-1.9-5.5-5.9
				V28.7h-2.4L192.5,26.7L192.5,26.7z"/>
		</g>
		<polygon class="st1" points="45.3,49 96.3,49 96.3,51 44.5,51 		"/>
		<rect x="96.3" y="49" class="st0" width="52" height="2"/>
		<ellipse class="st1" cx="57.1" cy="14.6" rx="2.4" ry="2.4"/>
		<ellipse class="st0" cx="52.7" cy="10.4" rx="1.5" ry="1.5"/>
		<ellipse class="st2" cx="209.3" cy="45.1" rx="2.7" ry="2.7"/>
		<path class="st2" d="M154.5,50.3"/>
	</g>
	<path class="st1" d="M45.1,49c-8.2,5.8-19.6,5-27-2.4c-8.3-8.3-8.3-21.8,0-30.1c8.1-8.2,21.3-8.3,29.6-0.3l1.5-1.6
		c-9.2-8.8-23.6-8.7-32.6,0.4c-9.1,9.2-9.1,24.1,0,33.3c8.8,8.9,22.9,9.1,32.1,0.8H45.1z"/>
</g>
</svg>
