<svg width="130" height="50" viewBox="0 0 130 50" fill="none" xmlns="http://www.w3.org/2000/svg">
<g clip-path="url(#clip0_10_156)">
<path d="M0 40.0432L10 50.0001H30V40.0432H0Z" fill="#A7C636"/>
<path d="M0 0.21582V40.0432L10 50.0001V0.21582H0Z" fill="#2A2C2E"/>
<path d="M70 10.1726V50L80 40.765V10.1726H70Z" fill="#2A2C2E"/>
<path d="M70 0.21582L80 10.1727H70V0.21582Z" fill="#A7C636"/>
<path d="M40 0.21582L50 10.1727H70V0.21582H40Z" fill="#A7C636"/>
<path d="M70 40.0432H40L50 50.0001H70V40.0432Z" fill="#595959"/>
<path d="M40 50H50V9.95685L40 0V50Z" fill="#8DA82B"/>
<path d="M120 0.21582V30.0864H130V0.21582H120Z" fill="#A7C636"/>
<path d="M130 30.0864H120V50.0001H130V30.0864Z" fill="#A7C636"/>
<path d="M100 0.21582H90V50.0001H100V0.21582Z" fill="#2A2C2E"/>
<path d="M119.767 20.1296H89.7668L99.9881 30.0865H129.767L119.767 20.1296Z" fill="#595959"/>
</g>
<defs>
<clipPath id="clip0_10_156">
<rect width="130" height="50" fill="white"/>
</clipPath>
</defs>
</svg>
