<?xml version="1.0" encoding="utf-8"?>
<!-- Generator: Adobe Illustrator 27.8.1, SVG Export Plug-In . SVG Version: 6.00 Build 0)  -->
<svg version="1.1" id="레이어_1" xmlns="http://www.w3.org/2000/svg" xmlns:xlink="http://www.w3.org/1999/xlink" x="0px"
	 y="0px" viewBox="0 0 190 50" style="enable-background:new 0 0 190 50;" xml:space="preserve">
<style type="text/css">
	.st0{fill:#8DA82B;}
	.st1{fill:#A7C636;}
	.st2{fill:#595959;}
</style>
<g>
	<g>
		<path class="st0" d="M15.09,37.36h13.26v4.31H10.08V11.9h5.01V37.36z"/>
		<path class="st0" d="M37.26,41.67h-5.01V11.9h5.01V41.67z"/>
		<path class="st1" d="M57.56,29.16l8.59-17.26h4.79v29.78h-4.84V21.73l-6.82,14.2h-3.54l-6.69-14.07v19.81h-4.84V11.9h4.75
			L57.56,29.16z"/>
		<path class="st1" d="M95.8,11.9v4.36H82.55v7.85h11.96v4.31H82.55v8.93H95.8v4.31H77.53V11.9H95.8z"/>
	</g>
	<g>
		<path class="st2" d="M103.58,11.77h2.37v22.61c0,3.02,0.34,5.01,4.1,5.01v2.24c-4.97,0-6.48-2.16-6.48-6.65V11.77z"/>
		<path class="st2" d="M115.55,11.77h2.89v2.89h-2.89V11.77z M115.81,19.97h2.37v21.58h-2.37V19.97z"/>
		<path class="st2" d="M123.81,29.16c0-6.13,3.07-9.45,8.42-9.45c3.24,0,5.31,1.04,6.52,3.06v-2.8h2.37v20.71
			c0,6-3.24,9.32-8.81,9.32c-3.45,0-5.74-1.12-7.17-3.49l1.86-1.34c1.17,1.86,2.94,2.63,5.44,2.63c4.36,0,6.31-2.85,6.31-7.12v-1.77
			c-1.21,1.99-3.28,2.89-6.52,2.89c-5.62,0-8.42-3.62-8.42-9.54V29.16z M138.75,32.31V28.9c0-4.23-1.86-6.99-6.35-6.99
			c-4.1,0-6.22,2.55-6.22,7.25v3.11c0,4.53,2.03,7.34,6.22,7.34C137.24,39.6,138.75,36.54,138.75,32.31z"/>
		<path class="st2" d="M147.18,11.77h2.37V22.9c1.17-2.07,3.15-3.19,6.35-3.19c4.8,0,7.95,2.98,7.95,9.06v12.77h-2.37V28.81
			c0-4.92-2.46-6.86-5.83-6.86c-4.06,0-6.09,2.68-6.09,6.64v12.95h-2.37V11.77z"/>
		<path class="st2" d="M168.01,19.97h2.76v-4.75h2.38v4.75h5.31v2.2h-5.31v12.08c0,3.45,0.39,5.01,3.89,5.01h1.42v2.29h-1.51
			c-4.8,0-6.18-2.16-6.18-6.65V22.17h-2.76V19.97z"/>
	</g>
	<rect x="10.08" y="45.02" class="st0" width="49.42" height="2.23"/>
	<rect x="59.5" y="45.02" class="st1" width="58.68" height="2.23"/>
	<circle class="st0" cx="4.5" cy="8.33" r="4.5"/>
	<circle class="st1" cx="10.79" cy="2.58" r="2.5"/>
	<circle class="st2" cx="187" cy="40.65" r="3"/>
	<path class="st2" d="M125.14,46.51"/>
</g>
</svg>
