<?xml version="1.0" encoding="utf-8"?>
<!-- Generator: Adobe Illustrator 27.8.1, SVG Export Plug-In . SVG Version: 6.00 Build 0)  -->
<svg version="1.1" id="레이어_1" xmlns="http://www.w3.org/2000/svg" xmlns:xlink="http://www.w3.org/1999/xlink" x="0px"
	 y="0px" viewBox="0 0 259 55" style="enable-background:new 0 0 259 55;" xml:space="preserve">
<style type="text/css">
	.st0{fill:#B7D332;}
	.st1{fill:#8DA82B;}
	.st2{fill:#595959;}
	.st3{fill:#A7C636;}
</style>
<g>
	<g>
		<path class="st0" d="M26.7,30l-10-10c-0.4-0.4-1-0.4-1.4,0c-2.6,3-4.1,6.7-4.4,10.5c0,0.6,0.4,1,0.9,1H26
			C26.9,31.7,27.3,30.6,26.7,30z"/>
		<path class="st0" d="M29.5,35.1v14.1c0,0.6,0.5,1,1,0.9c3.8-0.3,7.5-1.7,10.5-4.4c0.4-0.4,0.4-1,0-1.4l-10-10
			C30.5,33.9,29.5,34.3,29.5,35.1z"/>
		<path class="st0" d="M27.2,34.5l-10,10c-0.4,0.4-0.4,1,0,1.4c3,2.6,6.7,4.1,10.5,4.4c0.6,0,1-0.4,1-0.9V35.1
			C28.8,34.3,27.8,33.9,27.2,34.5z"/>
		<path class="st0" d="M26,32.4H12c-0.6,0-1,0.5-0.9,1c0.3,3.8,1.7,7.5,4.4,10.5c0.4,0.4,1,0.4,1.4,0l10-10
			C27.3,33.4,26.9,32.4,26,32.4z"/>
	</g>
	<g>
		<path class="st0" d="M11.9,0.3c0,0-3.5,5.8-2.9,9.1c0.8,4.6,5.8,7.6,5.8,7.6L11.9,0.3z"/>
		<path class="st1" d="M11.9,0.3c0,0,5.2,4.3,5.8,7.6c0.8,4.6-2.9,9.1-2.9,9.1L11.9,0.3z"/>
		<path class="st0" d="M0,8.9c0,0,2.6,6.2,5.6,7.7c4.2,2.1,9.5-0.2,9.5-0.2L0,8.9z"/>
		<path class="st1" d="M0,8.9c0,0,6.5-1.7,9.5-0.2c4.2,2.1,5.6,7.7,5.6,7.7L0,8.9z"/>
	</g>
	<path class="st1" d="M29.4,55.3c-6.3,0-12.2-2.5-16.7-6.9C8.3,43.9,5.8,38,5.8,31.7c0-6.3,2.4-12.2,6.9-16.7c0.6-0.6,1.4-0.6,2,0
		c0.6,0.6,0.6,1.4,0,2c-3.9,3.9-6.1,9.1-6.1,14.7c0,5.5,2.2,10.7,6.1,14.7c8.1,8.1,21.2,8.1,29.3,0c0.6-0.6,1.4-0.6,2,0
		c0.6,0.6,0.6,1.4,0,2C41.6,52.8,35.7,55.3,29.4,55.3z"/>
	<path class="st1" d="M48.1,45.4c-0.4,0-0.7-0.1-1-0.4L24.7,22.2c-0.5-0.6-0.5-1.5,0-2c0.6-0.5,1.5-0.5,2,0L49.2,43
		c0.5,0.6,0.5,1.5,0,2C48.9,45.3,48.5,45.4,48.1,45.4z"/>
	<circle class="st1" cx="21.4" cy="17.5" r="2.7"/>
</g>
<g>
	<g>
		<g>
			<g>
				<g>
					<path class="st1" d="M63.8,41h14.8v4.8H60.9c-1.5,0-2.7-1.2-2.7-2.7V12.7h5.6L63.8,41z"/>
					<path class="st1" d="M88.5,45.8h-5.6V12.7h5.6V45.8z"/>
					<path class="st0" d="M111.2,31.9l9.6-19.2h5.3v33.1h-5.4V23.6l-7.6,15.8h-3.9l-7.5-15.6v22h-5.4V12.7h5.3L111.2,31.9z"/>
					<path class="st0" d="M153.9,12.7v4.8h-14.8v8.7h13.3V31h-13.3v9.9h14.8v4.8h-20.4v-33H153.9z"/>
				</g>
				<g>
					<path class="st2" d="M162.5,12.5h2.6v25.1c0,3.4,0.4,5.6,4.6,5.6v2.5c-5.5,0-7.2-2.4-7.2-7.4L162.5,12.5L162.5,12.5z"/>
					<path class="st2" d="M175.9,12.5h3.2v3.2h-3.2V12.5z M176.2,21.7h2.6v24h-2.6V21.7z"/>
					<path class="st2" d="M185.1,31.9c0-6.8,3.4-10.5,9.4-10.5c3.6,0,5.9,1.2,7.3,3.4v-3.1h2.6v23c0,6.7-3.6,10.3-9.8,10.3
						c-3.8,0-6.4-1.2-8-3.9l2.1-1.5c1.3,2.1,3.3,2.9,6.1,2.9c4.9,0,7-3.2,7-7.9v-2c-1.3,2.2-3.7,3.2-7.3,3.2c-6.3,0-9.4-4-9.4-10.6
						L185.1,31.9L185.1,31.9z M201.8,35.4v-3.8c0-4.7-2.1-7.8-7.1-7.8c-4.6,0-6.9,2.8-6.9,8.1v3.5c0,5,2.3,8.2,6.9,8.2
						C200.1,43.5,201.8,40.1,201.8,35.4z"/>
					<path class="st2" d="M211.2,12.5h2.6v12.4c1.3-2.3,3.5-3.5,7.1-3.5c5.4,0,8.9,3.3,8.9,10.1v14.2h-2.6V31.5
						c0-5.5-2.7-7.6-6.5-7.6c-4.5,0-6.8,3-6.8,7.4v14.4h-2.6L211.2,12.5L211.2,12.5z"/>
					<path class="st2" d="M234.5,21.7h3.1v-5.3h2.7v5.3h5.9v2.4h-5.9v13.4c0,3.8,0.4,5.6,4.3,5.6h1.6v2.5h-1.7
						c-5.4,0-6.9-2.4-6.9-7.4V24.1h-3.1L234.5,21.7L234.5,21.7z"/>
				</g>
				<rect x="113.3" y="49.5" class="st0" width="49.2" height="2.5"/>
				<rect x="162.5" y="49.5" class="st2" width="16.6" height="2.5"/>
				<ellipse class="st2" cx="255.7" cy="44.6" rx="3.3" ry="3.3"/>
				<path class="st2" d="M186.6,51.1"/>
			</g>
		</g>
		<rect x="58.2" y="49.5" class="st1" width="67.9" height="2.5"/>
	</g>
	<circle class="st1" cx="51.5" cy="8.6" r="3.7"/>
	<circle class="st3" cx="57" cy="2.2" r="2.2"/>
</g>
</svg>
